<?xml version="1.0" encoding="UTF-8"?>
<svg width="13px" height="22px" viewBox="0 0 13 22" version="1.1" xmlns="http://www.w3.org/2000/svg" xmlns:xlink="http://www.w3.org/1999/xlink">
    <!-- Generator: Sketch 48.2 (47327) - http://www.bohemiancoding.com/sketch -->
    <title>menu_fresh</title>
    <desc>Created with Sketch.</desc>
    <defs></defs>
    <g id="icons" stroke="none" stroke-width="1">
        <path d="M12.9641975,7.54528427 C12.9015127,7.41620589 12.7665095,7.33336198 12.6177953,7.33336198 L8.08692102,7.33336198 L12.5585158,0.562848756 C12.6330745,0.44992666 12.6376448,0.306926381 12.5703896,0.189965215 C12.5030897,0.0726173293 12.3745834,0 12.2354132,0 L6.11779193,0 C5.9728864,0 5.8405716,0.0784610907 5.77560159,0.202769927 L0.0403176478,11.2027914 C-0.0189618886,11.3161002 -0.0124648873,11.4510224 0.0571202375,11.5591749 C0.127108624,11.6673275 0.249834739,11.7333276 0.382507987,11.7333276 L4.31422436,11.7333276 L0.0299672525,21.4910771 C-0.0430680039,21.6579251 0.0219468164,21.8514997 0.182893222,21.9461171 C0.244816366,21.9824257 0.313639773,22 0.382104725,22 C0.491836838,22 0.600045515,21.9548827 0.675007468,21.8698474 L12.9102948,7.93647253 C13.0062264,7.82724576 13.0268824,7.6747064 12.9641975,7.54528427 Z" id="menu_fresh"></path>
    </g>
</svg>