<?xml version="1.0" encoding="UTF-8"?>
<svg width="28px" height="18px" viewBox="0 0 28 18" version="1.1" xmlns="http://www.w3.org/2000/svg" xmlns:xlink="http://www.w3.org/1999/xlink">
    <!-- Generator: Sketch 48.2 (47327) - http://www.bohemiancoding.com/sketch -->
    <title>menu_groups</title>
    <desc>Created with Sketch.</desc>
    <defs></defs>
    <g id="icons" stroke="none" stroke-width="1">
        <g id="menu_groups">
            <path d="M18.6169127,7.34104924 C20.6771844,7.34104924 22.327884,5.70154824 22.327884,3.67052462 C22.327884,1.639501 20.6771844,0 18.6169127,0 C16.5566411,0 14.8935302,1.639501 14.8935302,3.67052462 C14.8935302,5.70154824 16.5566411,7.34104924 18.6169127,7.34104924 L18.6169127,7.34104924 Z M8.68851317,7.34104924 C10.7487848,7.34104924 12.3988639,5.70154824 12.3988639,3.67052462 C12.3988639,1.639501 10.7487848,0 8.68851317,0 C6.6282415,0 4.96513063,1.639501 4.96513063,3.67052462 C4.96513063,5.70154824 6.6282415,7.34104924 8.68851317,7.34104924 L8.68851317,7.34104924 Z M8.68851317,9.78806565 C5.79668606,9.78806565 0,11.2195702 0,14.0703444 L0,17.1291149 L17.3757852,17.1291149 L17.3757852,14.0703444 C17.3757852,11.2195702 11.5797197,9.78806565 8.68851317,9.78806565 L8.68851317,9.78806565 Z M18.6169127,9.78806565 C18.2569858,9.78806565 17.8474137,9.81253581 17.413019,9.84924106 C18.852727,10.876988 19.8580403,12.2595522 19.8580403,14.0703444 L19.8580403,17.1291149 L27.3048053,17.1291149 L27.3048053,14.0703444 C27.3048053,11.2195702 21.5087398,9.78806565 18.6169127,9.78806565 L18.6169127,9.78806565 Z" id="Fill-116"></path>
        </g>
    </g>
</svg>