<?xml version="1.0" encoding="UTF-8"?>
<svg width="17px" height="23px" viewBox="0 0 17 23" version="1.1" xmlns="http://www.w3.org/2000/svg" xmlns:xlink="http://www.w3.org/1999/xlink">
    <!-- Generator: Sketch 48.2 (47327) - http://www.bohemiancoding.com/sketch -->
    <title>menu_fire</title>
    <desc>Created with Sketch.</desc>
    <defs></defs>
    <g id="icons" stroke="none" stroke-width="1">
        <path d="M16.9515677,13.466177 C16.6919193,10.035989 15.1180026,7.88643328 13.7294922,5.98956298 C12.4437786,4.23347779 11.3333333,2.71700577 11.3333333,0.479987184 C11.3333333,0.30029976 11.2341667,0.136065455 11.0769167,0.0537236925 C10.9191797,-0.02911221 10.7296563,-0.0155458095 10.586263,0.0902002396 C8.50092969,1.60433632 6.7609974,4.15630204 6.15320313,6.59124632 C5.73125781,8.2864624 5.67543229,10.1922272 5.66759635,11.4508927 C3.7418151,11.0335237 3.30557031,8.11054842 3.30096615,8.07869882 C3.27927344,7.92708756 3.18798698,7.79515207 3.05517448,7.72309741 C2.92098958,7.65198611 2.7632526,7.6468201 2.62720833,7.71514624 C2.52622656,7.76473997 0.148484375,8.99065742 0.0101380208,13.8853878 C0.000442708333,14.0482295 0,14.2115654 0,14.3748563 C0,19.1301492 3.81326823,22.9992687 8.5,22.9992687 C8.50646354,22.9997179 8.51336979,23.0006613 8.51890365,22.9992687 C8.52076302,22.9992687 8.52257813,22.9992687 8.52488021,22.9992687 C13.2001016,22.9856574 17,19.1217488 17,14.3748563 C17,14.1357373 16.9515677,13.466177 16.9515677,13.466177 Z M8.5,22.0409957 C6.93759375,22.0409957 5.66666667,20.6672404 5.66666667,18.9785829 C5.66666667,18.921038 5.66622396,18.862999 5.67034115,18.7918877 C5.68924479,18.0797415 5.82254427,17.5935971 5.96872656,17.2702496 C6.24267448,17.867306 6.73239844,18.4161613 7.52790104,18.4161613 C7.78892187,18.4161613 8.00013802,18.2018391 8.00013802,17.9370247 C8.00013802,17.2548414 8.01399479,16.4678105 8.18138281,15.7575061 C8.33035417,15.1277017 8.68633594,14.4576473 9.13736719,13.9205167 C9.33795833,14.6177039 9.72904687,15.1819673 10.1108828,15.7327093 C10.657362,16.5206386 11.2222578,17.3352965 11.3214245,18.7245049 C11.327401,18.8068466 11.3334219,18.8896825 11.3334219,18.9785829 C11.3333333,20.6671955 10.0624062,22.0409957 8.5,22.0409957 Z" id="menu_fire"></path>
    </g>
</svg>