<?xml version="1.0" encoding="UTF-8"?>
<svg width="21px" height="19px" viewBox="0 0 21 19" version="1.1" xmlns="http://www.w3.org/2000/svg" xmlns:xlink="http://www.w3.org/1999/xlink">
    <!-- Generator: Sketch 48.2 (47327) - http://www.bohemiancoding.com/sketch -->
    <title>menu_top</title>
    <desc>Created with Sketch.</desc>
    <defs></defs>
    <g id="icons" stroke="none" stroke-width="1">
        <path d="M20.3335994,3.51283952 C20.1016567,3.28203836 19.8200431,3.16652947 19.4885845,3.16652947 L15.9089704,3.16652947 L15.9089704,1.9790755 C15.9089704,1.43480591 15.7145529,0.96900091 15.324978,0.581313893 C14.9355772,0.193756855 14.4672079,0 13.9204361,0 L6.76142559,0 C6.2145667,0 5.74632803,0.193713529 5.35688371,0.581313893 C4.96739586,0.968957583 4.77276076,1.43476258 4.77276076,1.9790755 L4.77276076,3.16657279 L1.19314666,3.16657279 C0.861775074,3.16657279 0.580074402,3.28195171 0.348001108,3.51288284 C0.115927815,3.74381398 0,4.02422417 0,4.35411341 L0,5.93744313 C0,6.52287306 0.17191098,7.112549 0.515820007,7.7063843 C0.859641967,8.30008962 1.32357089,8.83630045 1.90786797,9.31441022 C2.49194739,9.79273663 3.20867121,10.1948081 4.05803944,10.5205813 C4.90745121,10.8463545 5.80017809,11.0298863 6.73656836,11.07096 C7.08465654,11.5165314 7.47810588,11.9080745 7.91726464,12.2460225 C8.23222437,12.5263894 8.44958358,12.8251267 8.56977761,13.1430578 C8.68984104,13.460339 8.74991628,13.8293955 8.74991628,14.2500542 C8.74991628,14.6954523 8.6236712,15.0705746 8.37083276,15.375421 C8.11825553,15.680874 7.71427125,15.8332972 7.15914114,15.8332972 C6.53762352,15.8332972 5.98462652,16.0209883 5.49984539,16.3961106 C5.01515132,16.7715362 4.77276076,17.2436236 4.77276076,17.812676 L4.77276076,18.6041676 C4.77276076,18.7198064 4.80998129,18.8146918 4.88455296,18.8888238 C4.95916816,18.9629557 5.05437437,19 5.17043278,19 L15.5113854,19 C15.6276179,19 15.72265,18.9629557 15.7974394,18.8888238 C15.8716192,18.8146918 15.9088833,18.7198064 15.9088833,18.6041676 L15.9088833,17.812676 C15.9088833,17.2435802 15.6666669,16.7716662 15.181581,16.3961106 C14.6967999,16.0209883 14.1438029,15.8332972 13.5222852,15.8332972 C12.9673293,15.8332972 12.5631709,15.6808307 12.3108113,15.375421 C12.058147,15.0705746 11.9321196,14.6954956 11.9321196,14.2500542 C11.9321196,13.8292222 11.9920207,13.460339 12.1120841,13.1430578 C12.2324958,12.8251267 12.4499856,12.5265627 12.7645971,12.2460225 C13.2037994,11.9079445 13.5973793,11.5161848 13.9450757,11.07096 C14.8818578,11.0298863 15.774367,10.8463112 16.6239529,10.5205813 C17.4729728,10.1948081 18.1900014,9.79273663 18.7739937,9.31441022 C19.3582908,8.83612714 19.8222197,8.30008962 20.1660417,7.7063843 C20.5098637,7.112549 20.6818182,6.52291639 20.6818182,5.93744313 L20.6818182,4.35411341 C20.6816441,4.02439747 20.5655856,3.74390063 20.3335994,3.51283952 Z M2.76542037,7.94125816 C1.98239611,7.24859473 1.59094928,6.58058418 1.59094928,5.93731315 L1.59094928,4.74981586 L4.77271723,4.74981586 C4.77271723,6.47352399 5.07918806,8.00321529 5.69239091,9.33914975 C4.52423207,9.1000732 3.54853169,8.63392159 2.76542037,7.94125816 Z M19.0906948,5.93744313 C19.0906948,6.58071416 18.6995091,7.24889802 17.9164849,7.94151812 C17.1331559,8.63418155 16.157499,9.10020318 14.9893837,9.33927973 C15.6025866,8.0033886 15.9090139,6.47365397 15.9090139,4.74994584 L19.0906948,4.74994584 L19.0906948,5.93744313 Z" id="menu_top"></path>
    </g>
</svg>