<?xml version="1.0" encoding="UTF-8"?>
<svg width="20px" height="20px" viewBox="0 0 20 20" version="1.1" xmlns="http://www.w3.org/2000/svg" xmlns:xlink="http://www.w3.org/1999/xlink">
    <!-- Generator: Sketch 48.2 (47327) - http://www.bohemiancoding.com/sketch -->
    <title>menu_about</title>
    <desc>Created with Sketch.</desc>
    <defs></defs>
    <g id="icons" stroke="none" stroke-width="1">
        <path d="M9.99957672,0 C4.47746032,0 0,4.47746032 0,9.99957672 C0,15.5216931 4.47746032,20 9.99957672,20 C15.5216931,20 20,15.5216931 20,9.99957672 C20,4.47746032 15.5216931,0 9.99957672,0 Z M12.0812698,15.4979894 C11.5665608,15.701164 11.1568254,15.8552381 10.8495238,15.9619048 C10.5430688,16.0685714 10.1866667,16.1219048 9.78116402,16.1219048 C9.15809524,16.1219048 8.67301587,15.9695238 8.32761905,15.6656085 C7.98222222,15.3616931 7.81037037,14.9765079 7.81037037,14.5083598 C7.81037037,14.3263492 7.82306878,14.1401058 7.84846561,13.9504762 C7.87470899,13.7608466 7.91619048,13.5475132 7.97291005,13.3079365 L8.61714286,11.032381 C8.67386243,10.8139683 8.72296296,10.6065608 8.76190476,10.413545 C8.80084656,10.218836 8.8194709,10.0402116 8.8194709,9.87767196 C8.8194709,9.58814815 8.75936508,9.38497354 8.64,9.27068783 C8.5189418,9.15640212 8.29121693,9.1005291 7.95174603,9.1005291 C7.78582011,9.1005291 7.61481481,9.12507937 7.43957672,9.17671958 C7.26603175,9.23005291 7.11534392,9.27830688 6.99174603,9.32571429 L7.16190476,8.6247619 C7.58349206,8.45291005 7.98730159,8.30560847 8.37248677,8.1837037 C8.75767196,8.06010582 9.12169312,7.99915344 9.46455026,7.99915344 C10.0833862,7.99915344 10.5608466,8.14984127 10.8969312,8.44783069 C11.2313228,8.74666667 11.3997884,9.1352381 11.3997884,9.61269841 C11.3997884,9.71174603 11.3879365,9.88613757 11.3650794,10.1350265 C11.3422222,10.3847619 11.2990476,10.6124868 11.2364021,10.8215873 L10.5955556,13.0903704 C10.5430688,13.272381 10.4965079,13.4806349 10.4541799,13.7134392 C10.4126984,13.9462434 10.392381,14.1240212 10.392381,14.2433862 C10.392381,14.5447619 10.4592593,14.7504762 10.594709,14.8596825 C10.7284656,14.9688889 10.962963,15.0239153 11.2948148,15.0239153 C11.4514286,15.0239153 11.6266667,14.9959788 11.8247619,14.9417989 C12.021164,14.887619 12.1633862,14.8393651 12.2531217,14.7978836 L12.0812698,15.4979894 Z M11.9678307,6.28910053 C11.6689947,6.56677249 11.3092063,6.70560847 10.8884656,6.70560847 C10.4685714,6.70560847 10.1062434,6.56677249 9.80486772,6.28910053 C9.50518519,6.01142857 9.35365079,5.67365079 9.35365079,5.27915344 C9.35365079,4.88550265 9.50603175,4.54687831 9.80486772,4.26666667 C10.1062434,3.98560847 10.4685714,3.84592593 10.8884656,3.84592593 C11.3092063,3.84592593 11.6698413,3.98560847 11.9678307,4.26666667 C12.2666667,4.54687831 12.4165079,4.88550265 12.4165079,5.27915344 C12.4165079,5.67449735 12.2666667,6.01142857 11.9678307,6.28910053 Z" id="menu_about"></path>
    </g>
</svg>