<?xml version="1.0" encoding="UTF-8"?>
<svg width="21px" height="22px" viewBox="0 0 21 22" version="1.1" xmlns="http://www.w3.org/2000/svg" xmlns:xlink="http://www.w3.org/1999/xlink">
    <!-- Generator: Sketch 48.2 (47327) - http://www.bohemiancoding.com/sketch -->
    <title>menu_settings</title>
    <desc>Created with Sketch.</desc>
    <defs></defs>
    <g id="icons" stroke="none" stroke-width="1">
        <path d="M18.5226778,12.078 C18.5658571,11.726 18.5982416,11.374 18.5982416,11 C18.5982416,10.626 18.5658571,10.274 18.5226778,9.922 L20.8003882,8.107 C21.0054901,7.942 21.0594643,7.645 20.9299263,7.403 L18.770959,3.597 C18.641421,3.355 18.3499604,3.267 18.112474,3.355 L15.4250995,4.455 C14.863768,4.015 14.2592572,3.652 13.6007722,3.377 L13.1905684,0.462 C13.1581839,0.198 12.9314923,0 12.6616214,0 L8.34368692,0 C8.07381601,0 7.84712445,0.198 7.81473994,0.462 L7.40453616,3.377 C6.74605115,3.652 6.14154032,4.026 5.58020883,4.455 L2.8922946,3.355 C2.64401337,3.256 2.36334762,3.355 2.23380959,3.597 L0.0748423313,7.403 C-0.0654905403,7.645 -0.000721522613,7.942 0.204380367,8.107 L2.48209082,9.922 C2.43891148,10.274 2.40652697,10.637 2.40652697,11 C2.40652697,11.363 2.43891148,11.726 2.48209082,12.078 L0.204380367,13.893 C-0.000721522613,14.058 -0.054695704,14.355 0.0748423313,14.597 L2.23380959,18.403 C2.36334762,18.645 2.6548082,18.733 2.8922946,18.645 L5.58020883,17.545 C6.14154032,17.985 6.74605115,18.348 7.40453616,18.623 L7.81473994,21.538 C7.84712445,21.802 8.07381601,22 8.34368692,22 L12.6616214,22 C12.9314923,22 13.1581839,21.802 13.1905684,21.538 L13.6007722,18.623 C14.2592572,18.348 14.863768,17.974 15.4250995,17.545 L18.112474,18.645 C18.3607552,18.744 18.641421,18.645 18.770959,18.403 L20.9299263,14.597 C21.0594643,14.355 21.0054901,14.058 20.8003882,13.893 L18.5226778,12.078 L18.5226778,12.078 Z M10.5026542,14.85 C8.41925077,14.85 6.72446148,13.123 6.72446148,11 C6.72446148,8.877 8.41925077,7.15 10.5026542,7.15 C12.5860576,7.15 14.2808469,8.877 14.2808469,11 C14.2808469,13.123 12.5860576,14.85 10.5026542,14.85 L10.5026542,14.85 Z" id="menu_settings"></path>
    </g>
</svg>