<?xml version="1.0" encoding="UTF-8"?>
<svg width="19px" height="19px" viewBox="0 0 19 19" version="1.1" xmlns="http://www.w3.org/2000/svg" xmlns:xlink="http://www.w3.org/1999/xlink">
    <!-- Generator: Sketch 48.2 (47327) - http://www.bohemiancoding.com/sketch -->
    <title>menu_faq</title>
    <desc>Created with Sketch.</desc>
    <defs></defs>
    <g id="icons" stroke="none" stroke-width="1">
        <path d="M9.5,0 C4.256,0 0,4.256 0,9.5 C0,14.744 4.256,19 9.5,19 C14.744,19 19,14.744 19,9.5 C19,4.256 14.744,0 9.5,0 L9.5,0 Z M8.55,14.25 L10.45,14.25 L10.45,16.15 L8.55,16.15 L8.55,14.25 Z M12.4165,8.7875 L11.5615,9.6615 C10.8775,10.355 10.45,10.925 10.45,12.35 L8.55,12.35 L8.55,11.875 C8.55,10.83 8.9775,9.88 9.6615,9.1865 L10.8395,7.9895 C11.191,7.6475 11.4,7.1725 11.4,6.65 C11.4,5.605 10.545,4.75 9.5,4.75 C8.455,4.75 7.6,5.605 7.6,6.65 L5.7,6.65 C5.7,4.5505 7.4005,2.85 9.5,2.85 C11.5995,2.85 13.3,4.5505 13.3,6.65 C13.3,7.486 12.958,8.246 12.4165,8.7875 L12.4165,8.7875 Z" id="menu_faq"></path>
    </g>
</svg>