<?xml version="1.0" encoding="UTF-8"?>
<svg width="18px" height="18px" viewBox="0 0 18 18" version="1.1" xmlns="http://www.w3.org/2000/svg" xmlns:xlink="http://www.w3.org/1999/xlink">
    <!-- Generator: Sketch 48.2 (47327) - http://www.bohemiancoding.com/sketch -->
    <title>type_contest</title>
    <desc>Created with Sketch.</desc>
    <defs></defs>
    <g id="icons" stroke="none" stroke-width="1" fill="none" fill-rule="evenodd">
        <path d="M9,0 C13.9705627,-9.13077564e-16 18,4.02943725 18,9 C18,13.9705627 13.9705627,18 9,18 C4.02943725,18 6.08718376e-16,13.9705627 0,9 C-6.08718376e-16,4.02943725 4.02943725,9.13077564e-16 9,0 Z M12.3797997,9.82472914 C12.6144521,9.62076065 12.75,9.31892019 12.75,9.00008235 C12.75,8.68138159 12.6144521,8.37926698 12.3797997,8.17557265 L8.42990384,4.74703785 C7.99455141,4.36898336 7.34801176,4.43190106 6.98659452,4.88740326 C6.62517728,5.34290547 6.68443031,6.01882523 7.1203071,6.39674265 L10.1200571,8.99994528 L7.1203071,11.6038333 C6.68429922,11.9816136 6.62504619,12.6575334 6.98659452,13.1133097 C7.18912975,13.3684074 7.48146216,13.5 7.77576093,13.5 C8.00661176,13.5 8.23838024,13.4191254 8.42990384,13.2529898 L12.3797997,9.82472914 Z" id="type_contest" fill="#407EFF"></path>
    </g>
</svg>