<?xml version="1.0" encoding="UTF-8"?>
<svg width="30px" height="22px" viewBox="0 0 30 22" version="1.1" xmlns="http://www.w3.org/2000/svg" xmlns:xlink="http://www.w3.org/1999/xlink">
    <!-- Generator: Sketch 48.2 (47327) - http://www.bohemiancoding.com/sketch -->
    <title>Shape</title>
    <desc>Created with Sketch.</desc>
    <defs></defs>
    <g id="forms/sendsolution--expanded" stroke="none" stroke-width="1" transform="translate(-266.000000, -29.000000)">
        <g id="Group" transform="translate(266.000000, 29.000000)">
            <path d="M28.6948146,12.2731732 C27.8248734,11.1846495 26.7131482,10.4791067 25.3587084,10.1561068 C25.7861267,9.51032602 25.9992338,8.79153918 25.9992338,7.99991045 C25.9992338,6.89568004 25.6085374,5.953059 24.8275824,5.17171898 C24.0464633,4.3906526 23.1037898,3.99995522 21.9995622,3.99995522 C21.009933,3.99995522 20.1454645,4.32290034 19.4060473,4.96879058 C18.7917362,3.46871844 17.8096046,2.26565073 16.4608018,1.35953273 C15.1119989,0.453141092 13.6249555,0 11.9997811,0 C9.7915994,0 7.90608838,0.781449474 6.34357641,2.34396533 C4.78095499,3.9060981 3.99989055,5.79172326 3.99989055,8.00007463 C3.99989055,8.13546968 4.01034341,8.35946805 4.03113969,8.67185082 C2.8020249,9.24478972 1.822958,10.104116 1.09361062,11.2498296 C0.364536872,12.3958716 0,13.6456216 0,15.0000647 C0,16.9272278 0.68501847,18.5753369 2.05467232,19.9451037 C3.4243809,21.3153082 5.07286907,22 6.99991791,22 L24.0001095,22 C25.6560952,22 27.070078,21.4138171 28.2421125,20.2421628 C29.4139828,19.0705085 30,17.6565222 30,15.9999303 C29.9998358,14.6041135 29.5648105,13.3620253 28.6948146,12.2731732 Z M19.8510877,11.851555 C19.7518676,11.9502828 19.6349706,11.9997015 19.49974,11.9997015 L15.9997811,11.9997015 L15.9997811,17.499893 C15.9997811,17.6351239 15.9503626,17.7523495 15.8514161,17.8512416 C15.7521959,17.9504619 15.6352989,17.999607 15.5000684,17.999607 L12.4996032,17.999607 C12.3642085,17.999607 12.2470379,17.9505167 12.1480914,17.8512416 C12.0493638,17.7523495 11.9996716,17.6351239 11.9996716,17.499893 L11.9996716,11.9997015 L8.49965796,11.9997015 C8.35397455,11.9997015 8.23406759,11.9529097 8.14048433,11.8594357 C8.0467369,11.7656333 7.99994527,11.6457808 7.99994527,11.500097 C7.99994527,11.3749907 8.05193597,11.2498843 8.15602682,11.1249422 L13.6403886,5.64073096 C13.734136,5.54692856 13.8539882,5.50008209 13.9997811,5.50008209 C14.1456834,5.50008209 14.2655356,5.54692856 14.3591736,5.64073096 L19.8591873,11.1405394 C19.9529895,11.2342324 19.999398,11.3540302 19.999398,11.5001517 C19.9993433,11.6352732 19.9499248,11.7528819 19.8510877,11.851555 Z" id="Shape"></path>
        </g>
    </g>
</svg>